<?xml version="1.0" encoding="UTF-8" standalone="no"?><!DOCTYPE svg PUBLIC "-//W3C//DTD SVG 1.1//EN" "http://www.w3.org/Graphics/SVG/1.1/DTD/svg11.dtd"><svg width="100%" height="100%" viewBox="0 0 500 500" version="1.1" xmlns="http://www.w3.org/2000/svg" xmlns:xlink="http://www.w3.org/1999/xlink" xml:space="preserve" xmlns:serif="http://www.serif.com/" style="fill-rule:evenodd;clip-rule:evenodd;stroke-linejoin:round;stroke-miterlimit:1.41421;"><g><path d="M149.773,259.024l200.435,0c9.593,0 17.299,7.694 17.299,17.258l0,10.337c0,9.555 -7.706,17.261 -17.299,17.261l-200.435,0c-9.566,0 -17.28,-7.706 -17.28,-17.261l0,-10.337c0,-9.564 7.714,-17.258 17.28,-17.258Z" style="fill:#FFF;fill-rule:nonzero;stroke:#FFF;stroke-width:1.94px;"/><path d="M149.773,192.573l200.435,0c9.593,0 17.299,7.702 17.299,17.259l0,10.336c0,9.584 -7.706,17.278 -17.299,17.278l-200.435,0c-9.566,0 -17.28,-7.694 -17.28,-17.278l0,-10.336c0,-9.557 7.714,-17.259 17.28,-17.259Z" style="fill:#FFF;fill-rule:nonzero;stroke:#FFF;stroke-width:1.94px;"/><path d="M149.773,126.12l200.435,0c9.593,0 17.299,7.703 17.299,17.259l0,10.366c0,9.556 -7.706,17.259 -17.299,17.259l-200.435,0c-9.566,0 -17.28,-7.703 -17.28,-17.259l0,-10.366c0,-9.556 7.714,-17.259 17.28,-17.259Z" style="fill:#FFF;fill-rule:nonzero;stroke:#FFF;stroke-width:1.94px;"/><path d="M500,430l-500,0l0,-430l500,0l0,430Zm-486.425,-414.032l0,398.064l472.85,0l0,-398.064l-472.85,0Z" style="fill:#FFF;"/></g></svg>