<?xml version="1.0" encoding="UTF-8" standalone="no"?><!DOCTYPE svg PUBLIC "-//W3C//DTD SVG 1.1//EN" "http://www.w3.org/Graphics/SVG/1.1/DTD/svg11.dtd"><svg width="100%" height="100%" viewBox="0 0 800 500" version="1.1" xmlns="http://www.w3.org/2000/svg" xmlns:xlink="http://www.w3.org/1999/xlink" xml:space="preserve" xmlns:serif="http://www.serif.com/" style="fill-rule:evenodd;clip-rule:evenodd;stroke-linejoin:round;stroke-miterlimit:1.41421;"><g><path d="M348.284,184.309l103.422,0c4.95,0 8.926,3.975 8.926,8.916l0,5.34c0,4.936 -3.976,8.917 -8.926,8.917l-103.422,0c-4.936,0 -8.916,-3.981 -8.916,-8.917l0,-5.34c0,-4.941 3.98,-8.916 8.916,-8.916l0,0Z" style="fill:#444;fill-rule:nonzero;stroke:#444;stroke-width:1px;"/><path d="M348.284,149.98l103.422,0c4.95,0 8.926,3.979 8.926,8.916l0,5.34c0,4.951 -3.976,8.926 -8.926,8.926l-103.422,0c-4.936,0 -8.916,-3.975 -8.916,-8.926l0,-5.34c0,-4.937 3.98,-8.916 8.916,-8.916l0,0Z" style="fill:#444;fill-rule:nonzero;stroke:#444;stroke-width:1px;"/><path d="M348.284,115.65l103.422,0c4.95,0 8.926,3.979 8.926,8.916l0,5.355c0,4.937 -3.976,8.916 -8.926,8.916l-103.422,0c-4.936,0 -8.916,-3.979 -8.916,-8.916l0,-5.355c0,-4.937 3.98,-8.916 8.916,-8.916l0,0Z" style="fill:#444;fill-rule:nonzero;stroke:#444;stroke-width:1px;"/><path d="M620.997,323.142l-441.994,0l0,-323.142l441.994,0l0,323.142Zm-429.994,-311.142l0,299.142l417.994,0l0,-299.142l-417.994,0Z" style="fill:#444;"/></g><g id="text"><text x="67.633px" y="439.486px" style="font-family:'CourierNewPS-BoldMT', 'Courier New', monospace;font-weight:700;font-size:96px;fill:#444;">ﬂatMap(Oslo)</text></g></svg>